<svg width="22" height="33" viewBox="0 0 22 33" fill="none" xmlns="http://www.w3.org/2000/svg">
<path d="M10.5922 15.0517C10.9841 16.5757 8.55073 17.2673 7.84881 18.7093L6.01998 19.3625L4.32179 19.9503C4.18207 19.3625 3.53182 19.3625 2.55828 18.7746C2.24269 19.4713 2.76724 19.4607 3.08079 20.3422C2.39404 20.6162 1.54003 20.3277 0.726158 20.7994C0.987722 21.5497 1.52091 21.0507 2.16638 21.3872C1.51804 21.7038 0.439363 22.0818 0.925377 22.2363C1.68807 22.6731 2.66479 22.0139 2.9548 21.9671C2.6865 22.5403 1.717 23.0729 1.64387 23.3466C2.8021 23.0439 3.2888 23.2692 3.66865 22.4322C4.62195 22.3997 5.16552 22.2423 5.95469 21.0606L9.08987 19.689C10.4646 19.6352 11.6092 18.1729 11.2453 17.5989L10.5921 15.0516L10.5922 15.0517Z" fill="#1A1A1A"/>
<path d="M10.1486 29.0142L8.90759 26.6629L9.75669 24.4421L10.5405 21.8949L10.8671 20.4579L16.4189 20.0007L17.9212 22.2215L16.6148 25.2913L16.7455 28.4265L16.0923 30.8431L14.9166 30.4512L14.4594 27.316L14.3288 25.4219L14.786 24.1809L14.3941 23.9196L13.545 23.789L12.0428 24.3768L10.9977 26.4016L10.8671 29.8632L10.1486 29.0141L10.1486 29.0142Z" fill="#1A1A1A"/>
<path d="M10.5656 14.0553C11.4155 13.7052 12.2756 13.3218 12.4759 15.0873L10.2964 19.779C9.58696 18.5704 9.10807 17.8375 8.19036 17.7122L10.5656 14.0554V14.0553Z" fill="#F2F2F2" stroke="#333333" stroke-linejoin="round"/>
<path d="M12.1089 13.4725L16.9088 13.1089C19.7459 17.2319 18.6541 20.5267 17.636 23.2175C15.7154 22.6787 14.7906 23.2778 14.2203 24.2821L13.13 24.2756C12.2321 22.9245 11.3342 22.5636 10.4363 22.563C10.4205 22.6 9.64006 14.9425 12.109 13.4725L12.1089 13.4725Z" fill="#F2F2F2" stroke="#333333"/>
<path d="M9.99984 19.945C12.4996 21.6778 16.8155 20.4942 18.6539 19.945L18.5812 21.6177C15.3607 22.6118 11.7307 22.3901 9.99964 21.4722L9.99963 19.945L9.99984 19.945Z" fill="#F2F2F2" stroke="#333333" stroke-linejoin="round"/>
<path d="M14.6563 24.0903L14.2199 26.1993C15.1473 26.0594 16.0713 25.9298 16.6198 26.9266L17.2016 23.5813C16.5024 23.1681 15.7337 23.1797 14.6563 24.0903V24.0903Z" fill="#F2F2F2" stroke="#333333" stroke-linejoin="round"/>
<path d="M9.86703 23.3599L9.04017 25.6394C9.97732 25.6772 11.0546 25.6517 11.4049 26.7341L12.5354 23.9953C11.9268 23.4575 11.0971 22.6691 9.86698 23.3599L9.86703 23.3599Z" fill="#F2F2F2" stroke="#333333" stroke-linejoin="round"/>
<path d="M14.4384 26.8547C14.4384 26.8547 15.1657 25.9093 16.1111 26.6365C16.6904 27.0821 16.911 28.8183 16.911 28.8183C16.1453 28.8753 15.5215 28.3645 14.5839 29.1092L14.4384 26.8547L14.4384 26.8547Z" fill="#F2F2F2" stroke="#333333" stroke-linejoin="round"/>
<path d="M9.14719 26.1535C9.14719 26.1535 10.9653 25.7898 11.3289 27.0261C11.5351 27.7273 11.838 28.5534 11.838 28.5534C11.0722 28.6104 10.4485 28.0995 9.5108 28.8442L9.14719 26.1535Z" fill="#F2F2F2" stroke="#333333" stroke-linejoin="round"/>
<path d="M11.3094 28.8177C10.8339 28.6347 10.3727 28.3949 9.70944 28.9631C8.42296 29.6335 6.9759 29.6104 5.85496 30.9994L6.0004 31.7266C8.62518 32.6463 10.1914 31.89 11.6728 30.9994L11.3092 28.8176L11.3094 28.8177Z" fill="#F2F2F2" stroke="#333333" stroke-linejoin="round"/>
<path d="M16.5103 29.0355C16.0348 28.8525 15.5736 28.6127 14.9104 29.1809C13.6239 29.8513 12.1768 29.8282 11.0559 31.2172L11.2013 31.9444C13.8261 32.8641 15.3924 32.1078 16.8738 31.2172L16.5101 29.0354L16.5103 29.0355Z" fill="#F2F2F2" stroke="#333333" stroke-linejoin="round"/>
<path d="M13.8806 19.0586C13.6047 19.0325 6.10074 21.8469 6.10074 21.8469C5.83686 22.4902 5.63727 23.1223 6.72979 23.5303L14.6956 20.2493C14.8213 19.7249 14.646 19.2972 13.8807 19.0586L13.8806 19.0586Z" fill="black"/>
<path d="M11.668 21.8261L12.7302 24.505L13.9772 23.8122L12.8688 21.1334L14.4853 20.5329L14.0235 19.9325L8.06548 22.5651L8.29641 23.2579L11.668 21.8261L11.668 21.8261Z" fill="#333333" stroke="#1A1A1A"/>
<path d="M7.49235 18.7529C9.13418 18.0801 9.16215 19.05 9.67467 20.027L5.36543 22.0508C5.37213 20.9735 5.27316 20.0179 4.52359 19.812L7.49248 18.7529L7.49235 18.7529Z" fill="#F2F2F2" stroke="#333333" stroke-linejoin="round"/>
<path d="M12.4994 18.7781L5.89488 20.995L6.63385 22.6115C6.63385 22.6115 7.28043 22.75 7.0495 22.4267C6.81856 22.1034 6.49527 21.1797 6.49527 21.1797L12.5454 19.1014L12.4992 18.7781L12.4994 18.7781Z" fill="black"/>
<path d="M11.2058 18.9165L12.499 20.9487L13.6536 20.4406L12.5913 18.2699L11.2058 18.9165H11.2058Z" fill="#333333" stroke="#1A1A1A" stroke-linejoin="round"/>
<path d="M17.007 14.6461C17.399 16.1701 17.9701 17.5148 18.1827 19.2183L15.962 20.4593L14.5251 21.3084C14.3853 20.7205 14.3883 20.1327 13.4147 19.5448C13.0991 20.2416 13.5234 20.9382 14.0678 21.6349C13.0578 21.3547 11.9425 20.7061 11.2594 21.5696C11.4882 22.4835 12.2922 22.2473 13.0229 22.1575C12.3746 22.474 11.2959 22.852 11.7819 23.0066C12.5446 23.4433 12.9209 23.1074 13.3495 22.8759C12.7579 23.4953 12.5735 23.8432 12.5004 24.1169C13.5662 24.1375 14.0147 23.3863 14.3945 22.5494C15.3478 22.5168 16.3486 22.8166 17.1379 21.6349L20.0117 19.153C20.7986 18.2501 20.1143 17.7676 19.7504 17.1935L17.007 14.6462L17.007 14.6461Z" fill="#1A1A1A"/>
<path d="M16.4173 14.0582C16.7024 13.1844 16.9689 12.2812 18.4421 13.2745L20.5975 17.9771C19.2175 17.7326 18.3492 17.6214 17.6584 18.2383L16.4174 14.0582L16.4173 14.0582Z" fill="#F2F2F2" stroke="#333333" stroke-linejoin="round"/>
<path d="M17.8544 18.8262C19.2776 17.7666 19.8414 18.5806 20.467 18.9568L16.6133 22.5491C16.3521 21.5039 16.0189 20.6028 15.2417 20.5897L17.8543 18.8262L17.8544 18.8262Z" fill="#F2F2F2" stroke="#333333" stroke-linejoin="round"/>
<path d="M13.6761 21.0471L15.309 20.9164C15.9057 21.1463 16.2333 21.5375 15.9621 22.2881L14.2639 23.2025C13.1399 22.2778 13.2451 21.6262 13.6761 21.0471V21.0471Z" fill="#F2F2F2" stroke="#333333" stroke-linejoin="round"/>
<path d="M9.82984 8.09813C9.95068 7.46424 10.0808 3.97616 10.6149 3.18619C11.9922 1.46799 15.4812 0.552092 17.9172 2.73096C19.5224 5.16063 19.5223 7.32335 19.7734 9.52777C19.9496 13.6452 16.7666 13.3844 15.0379 15.019C14.5274 15.0477 14.0568 15.5736 13.4701 14.6532C12.9207 13.5977 13.1388 12.5575 9.90937 13.9147C9.42625 14.3212 8.96789 14.3271 8.56061 13.5078C8.0802 11.5232 9.14461 9.84881 9.82995 8.09834L9.82984 8.09813Z" fill="#F2F2F2" stroke="#333333" stroke-linejoin="round"/>
<path d="M17.8464 5.17785C18.1739 6.6551 17.4397 7.54141 17.0574 8.62354C15.4249 7.52226 14.2343 6.53142 12.8103 6.50885C11.9127 6.63598 11.7998 6.41884 10.6026 7.28843C10.1059 6.78138 10.1362 6.14242 10.3627 5.45434C12.9991 6.46884 15.817 5.68911 17.8464 5.17783L17.8464 5.17785Z" fill="black"/>
<path d="M10.2867 4.53343C13.0731 5.75769 16.7802 5.08136 18.8369 4.26398L18.9199 4.72064C15.8883 5.49602 12.703 6.31678 10.0438 4.96994L10.2867 4.53344L10.2867 4.53343Z" fill="#800000"/>
<path d="M10.5098 13.6433C11.2753 12.8081 11.4012 11.4284 12.811 11.1419C13.2847 12.0659 13.2065 12.8539 13.3403 13.6941C12.7615 13.2623 11.5302 13.4221 10.5098 13.6433L10.5098 13.6433Z" fill="black"/>
<path d="M9.75261 13.4491C9.76781 13.6384 9.72175 13.8247 9.62457 13.9672C9.5274 14.1097 9.38707 14.1966 9.23444 14.2089C9.08182 14.2211 8.92942 14.1577 8.81075 14.0326C8.69209 13.9074 8.61689 13.7308 8.60169 13.5415C8.5865 13.3523 8.63256 13.1659 8.72973 13.0234C8.82691 12.881 8.96724 12.794 9.11986 12.7818C9.27248 12.7695 9.42489 12.8329 9.54355 12.9581C9.66222 13.0832 9.73742 13.2599 9.75261 13.4491Z" fill="black"/>
<path d="M14.7865 14.3888C14.8017 14.578 14.7435 14.7654 14.6247 14.9096C14.506 15.0538 14.3364 15.1431 14.1532 15.1578C13.9701 15.1725 13.7884 15.1114 13.6481 14.988C13.5079 14.8646 13.4206 14.6889 13.4054 14.4997C13.3902 14.3104 13.4484 14.1231 13.5671 13.9789C13.6859 13.8347 13.8555 13.7454 14.0386 13.7307C14.2218 13.716 14.4034 13.7771 14.5437 13.9005C14.6839 14.0239 14.7713 14.1996 14.7865 14.3888Z" fill="black"/>
<path d="M10.5656 10.3028C11.5548 9.28012 11.5223 9.50133 12.9535 8.30411C14.094 9.15467 14.4097 10.0714 15.1125 10.9571C13.8734 9.52848 12.4798 9.07038 10.5656 10.3028H10.5656Z" fill="#999999"/>
<path d="M6.63438 22.1494L4.78698 22.8422L5.15647 23.6273L6.77293 22.9807L6.63437 22.1494H6.63438Z" fill="black"/>
<path d="M10.6453 17.2678L12.599 17.7604L15.5522 17.9446L13.0988 17.2255L13.2257 15.1528L12.6758 17.0563L10.6454 17.2678L10.6453 17.2678Z" fill="#B3B3B3"/>
<path d="M15.4266 6.94663C15.9791 7.11772 16.4479 7.40619 17.5416 6.81973L16.9494 8.04644L15.4266 6.94665V6.94663Z" fill="white"/>
</svg>
